<?xml version="1.0" encoding="utf-8"?>
<svg viewBox="408.947 896.103 1937.963 821.16" width="1937.963px" height="821.16px" xmlns="http://www.w3.org/2000/svg">
  <defs>
    <linearGradient x1="0" y1="0" x2="1" y2="0" gradientUnits="userSpaceOnUse" gradientTransform="matrix(14534.724609, 0, 0, -6158.703458, 3067.101807, 10199.878315)" spreadMethod="pad" id="linearGradient18">
      <stop style="stop-opacity:1;stop-color:#16181d" offset="0" id="stop14"/>
      <stop style="stop-opacity:1;stop-color:#2c3547" offset="1" id="stop16"/>
    </linearGradient>
    <clipPath clipPathUnits="userSpaceOnUse" id="clipPath28">
      <path d="m 9742.12,11245 -2460.35,-2373.7 241.99,798.2 -803.26,609 1007.68,20.9 330.85,952.1 330.84,-952.1 106.18,-2.1 366.24,353.9 -213.82,4.3 -589.44,1696.1 -589.45,-1696.1 -1795.78,-36.8 1430.99,-1085 -569.94,-1885.3 3353.19,3235.4 h 4293.66 l 144.5,361.2 z" id="path26"/>
    </clipPath>
    <linearGradient x1="0" y1="0" x2="1" y2="0" gradientUnits="userSpaceOnUse" gradientTransform="matrix(8338.39,15.1607,15.1607,-8338.39,5731.23,9997.2)" spreadMethod="pad" id="linearGradient38">
      <stop style="stop-opacity:1;stop-color:#90521d" offset="0" id="stop30"/>
      <stop style="stop-opacity:1;stop-color:#f0e173" offset="0.361" id="stop32"/>
      <stop style="stop-opacity:1;stop-color:#f6ecb2" offset="0.6979" id="stop34"/>
      <stop style="stop-opacity:1;stop-color:#d7cc54" offset="1" id="stop36"/>
    </linearGradient>
    <clipPath clipPathUnits="userSpaceOnUse" id="clipPath48">
      <path d="m 12687.9,9093.1 255,635.6 -3976.59,10.9 -909.45,-879.1 1500.33,-1210 -349.61,1245.4 -260.06,-290.4 -230.89,186.9 312.09,300.7 z" id="path46"/>
    </clipPath>
    <linearGradient x1="0" y1="0" x2="1" y2="0" gradientUnits="userSpaceOnUse" gradientTransform="matrix(8338.39,15.1607,15.1607,-8338.39,5733.61,8688.6)" spreadMethod="pad" id="linearGradient58">
      <stop style="stop-opacity:1;stop-color:#90521d" offset="0" id="stop50"/>
      <stop style="stop-opacity:1;stop-color:#f0e173" offset="0.361" id="stop52"/>
      <stop style="stop-opacity:1;stop-color:#f6ecb2" offset="0.6979" id="stop54"/>
      <stop style="stop-opacity:1;stop-color:#d7cc54" offset="1" id="stop56"/>
    </linearGradient>
    <clipPath clipPathUnits="userSpaceOnUse" id="clipPath68">
      <path d="m 13059.2,9728 -254.3,-634.9 h 141.6 l 255,634.9 z" id="path66"/>
    </clipPath>
    <linearGradient x1="0" y1="0" x2="1" y2="0" gradientUnits="userSpaceOnUse" gradientTransform="matrix(8338.39,15.1607,15.1607,-8338.39,5732.33,9397.3)" spreadMethod="pad" id="linearGradient78">
      <stop style="stop-opacity:1;stop-color:#90521d" offset="0" id="stop70"/>
      <stop style="stop-opacity:1;stop-color:#f0e173" offset="0.361" id="stop72"/>
      <stop style="stop-opacity:1;stop-color:#f6ecb2" offset="0.6979" id="stop74"/>
      <stop style="stop-opacity:1;stop-color:#d7cc54" offset="1" id="stop76"/>
    </linearGradient>
    <clipPath clipPathUnits="userSpaceOnUse" id="clipPath88">
      <path d="m 13317.8,9727.3 -254.3,-634.2 h 141.6 l 254.3,634.2 z" id="path86"/>
    </clipPath>
    <linearGradient x1="0" y1="0" x2="1" y2="0" gradientUnits="userSpaceOnUse" gradientTransform="matrix(8338.39,15.1607,15.1607,-8338.39,5732.33,9396.5)" spreadMethod="pad" id="linearGradient98">
      <stop style="stop-opacity:1;stop-color:#90521d" offset="0" id="stop90"/>
      <stop style="stop-opacity:1;stop-color:#f0e173" offset="0.361" id="stop92"/>
      <stop style="stop-opacity:1;stop-color:#f6ecb2" offset="0.6979" id="stop94"/>
      <stop style="stop-opacity:1;stop-color:#d7cc54" offset="1" id="stop96"/>
    </linearGradient>
    <clipPath clipPathUnits="userSpaceOnUse" id="clipPath108">
      <path d="m 13322.1,9093.1 h 140.9 l 254.3,633.5 h -141.6 z" id="path106"/>
    </clipPath>
    <linearGradient x1="0" y1="0" x2="1" y2="0" gradientUnits="userSpaceOnUse" gradientTransform="matrix(8338.39,15.1607,15.1607,-8338.39,5732.33,9395.7)" spreadMethod="pad" id="linearGradient118">
      <stop style="stop-opacity:1;stop-color:#90521d" offset="0" id="stop110"/>
      <stop style="stop-opacity:1;stop-color:#f0e173" offset="0.361" id="stop112"/>
      <stop style="stop-opacity:1;stop-color:#f6ecb2" offset="0.6979" id="stop114"/>
      <stop style="stop-opacity:1;stop-color:#d7cc54" offset="1" id="stop116"/>
    </linearGradient>
  </defs>
  <path d="M 17601.826 7120.527 L 3067.102 7120.527 L 3067.102 13279.229 L 17601.826 13279.229 L 17601.826 7120.527" style="fill: url(#linearGradient18); fill-opacity: 1; fill-rule: nonzero; stroke: none;" id="path20" transform="matrix(0.133333, 0, 0, -0.133333, 0, 2666.666748)"/>
  <g id="g22" transform="matrix(0.133333, 0, 0, -0.133333, 0, 2666.666748)">
    <g id="g24" clip-path="url(#clipPath28)">
      <path d="m 9742.12,11245 -2460.35,-2373.7 241.99,798.2 -803.26,609 1007.68,20.9 330.85,952.1 330.84,-952.1 106.18,-2.1 366.24,353.9 -213.82,4.3 -589.44,1696.1 -589.45,-1696.1 -1795.78,-36.8 1430.99,-1085 -569.94,-1885.3 3353.19,3235.4 h 4293.66 l 144.5,361.2 H 9742.12" style="fill:url(#linearGradient38);fill-opacity:1;fill-rule:nonzero;stroke:none" id="path40"/>
    </g>
  </g>
  <g id="g42" transform="matrix(0.133333, 0, 0, -0.133333, 0, 2666.666748)">
    <g id="g44" clip-path="url(#clipPath48)">
      <path d="m 12687.9,9093.1 255,635.6 -3976.59,10.9 -909.45,-879.1 1500.33,-1210 -349.61,1245.4 -260.06,-290.4 -230.89,186.9 312.09,300.7 h 3659.18" style="fill:url(#linearGradient58);fill-opacity:1;fill-rule:nonzero;stroke:none" id="path60"/>
    </g>
  </g>
  <g id="g62" transform="matrix(0.133333, 0, 0, -0.133333, 0, 2666.666748)">
    <g id="g64" clip-path="url(#clipPath68)">
      <path d="m 13059.2,9728 -254.3,-634.9 h 141.6 l 255,634.9 h -142.3" style="fill:url(#linearGradient78);fill-opacity:1;fill-rule:nonzero;stroke:none" id="path80"/>
    </g>
  </g>
  <g id="g82" transform="matrix(0.133333, 0, 0, -0.133333, 0, 2666.666748)">
    <g id="g84" clip-path="url(#clipPath88)">
      <path d="m 13317.8,9727.3 -254.3,-634.2 h 141.6 l 254.3,634.2 h -141.6" style="fill:url(#linearGradient98);fill-opacity:1;fill-rule:nonzero;stroke:none" id="path100"/>
    </g>
  </g>
  <g id="g102" transform="matrix(0.133333, 0, 0, -0.133333, 0, 2666.666748)">
    <g id="g104" clip-path="url(#clipPath108)">
      <path d="m 13322.1,9093.1 h 140.9 l 254.3,633.5 h -141.6 l -253.6,-633.5" style="fill:url(#linearGradient118);fill-opacity:1;fill-rule:nonzero;stroke:none" id="path120"/>
    </g>
  </g>
  <path d="m 10515,10770.4 -55.6,-437.7 -34.7,238.3 c -10.1,76.6 -19.5,143.1 -28.8,199.4 h -315 v -936.9 h 212.4 l 0.7,618.3 88.9,-618.3 h 150.9 l 85.3,632.8 v -632.8 h 213.1 v 936.9 H 10515" style="fill:#ffffff;fill-opacity:1;fill-rule:nonzero;stroke:none" id="path122" transform="matrix(0.133333, 0, 0, -0.133333, 0, 2666.666748)"/>
  <path d="m 11613.8,10272.7 c -28.2,41.2 -96.8,93.9 -205.2,158.9 -37.6,21.7 -60.7,41.2 -68.6,57.1 -8.7,15.9 -13,39 -13,70.8 0,23.8 3.6,41.9 11.5,54.1 7.3,12.3 18.8,18.1 33.3,18.1 13.7,0 23.1,-4.3 28.9,-13.7 5.7,-8.7 8.6,-29.6 8.6,-61.4 v -69.4 h 226.1 v 36.9 c 0,74.4 -7.2,127.1 -21.6,158.2 -14.5,31 -44.1,57 -88.2,77.3 -44.8,20.2 -98.9,30.3 -161.8,30.3 -57.8,0 -107.6,-9.4 -148.1,-28.2 -41.1,-18 -70.8,-44 -88.8,-77.3 -18.8,-33.2 -27.5,-85.9 -27.5,-157.4 0,-49.9 6.5,-91.1 19.5,-122.8 12.3,-31.8 28.9,-57.1 48.4,-75.2 19.5,-18 60,-47.6 120.7,-87.4 60.6,-39.7 98.2,-67.9 114.1,-85.2 14.4,-16.6 22.4,-52.7 22.4,-108.4 0,-24.5 -4.3,-43.3 -12.3,-56.3 -7.9,-13 -19.5,-18.8 -36.1,-18.8 -15.9,0 -27.5,4.3 -34,14.5 -5.7,10.1 -9.3,32.5 -9.3,67.9 v 114.1 h -226.1 v -61.4 c 0,-70.1 7.2,-124.3 21.6,-162.5 13.8,-38.3 44.1,-70.1 90.3,-94.7 46.2,-24.5 101.9,-36.8 166.9,-36.8 59.2,0 111.2,10.8 156,32.5 44.8,20.9 75.1,47.7 91,79.5 15.2,31 23.1,80.1 23.1,147.3 0,91.8 -13.7,158.2 -41.8,199.4" style="fill:#ffffff;fill-opacity:1;fill-rule:nonzero;stroke:none" id="path124" transform="matrix(0.133333, 0, 0, -0.133333, 0, 2666.666748)"/>
  <path d="m 12242.2,10129.7 c 0,-62.2 -3.6,-100.4 -12.3,-114.9 -7.9,-13.7 -29.6,-20.9 -64.3,-20.9 v 616.1 c 26,0 44.8,-2.9 54.2,-7.9 9.4,-5.8 15.9,-14.5 18.8,-26.7 2.2,-11.6 3.6,-39 3.6,-81.7 z m 235.5,489 c -5.1,30.3 -18.8,57.8 -40.5,82.4 -21.6,24.5 -53.4,42.6 -94.6,53.4 -41.2,10.8 -120.6,15.9 -238.4,15.9 h -182.7 v -936.9 h 307.7 c 57.8,0 101.8,3.6 130.7,10.1 28.9,5.8 52.8,17.3 73,33.2 19.5,15.9 33.2,38.3 41.2,66.5 7.9,28.2 11.5,84.5 11.5,169 v 328 c 0,88.1 -2.1,148.1 -7.9,178.4" style="fill:#ffffff;fill-opacity:1;fill-rule:nonzero;stroke:none" id="path126" transform="matrix(0.133333, 0, 0, -0.133333, 0, 2666.666748)"/>
  <path d="m 10257.2,9437.6 -56.3,17.6 c -16.5,5.2 -29.5,12.2 -38.7,21 -7.9,7.6 -11.8,17.3 -11.8,29.9 0,7.3 1.2,14.1 3.8,20.8 2.3,6.3 6,11.7 11.1,16.6 5.3,5 12.3,9.2 20.6,12.5 8.5,3.3 18.9,5 30.8,5 18.4,0 33.8,-4.7 47.1,-14.3 13.5,-9.7 22.7,-22.2 28.2,-38.1 l 4.6,-13.1 56,17 -4.1,13.7 c -3.9,13.3 -10,25.8 -18.2,37 -8.1,11.3 -18.1,21.1 -29.4,29.1 -11.3,8.1 -24.3,14.5 -38.5,18.9 -14.1,4.4 -29.4,6.6 -45.7,6.6 -19.6,0 -37.4,-3 -53,-8.9 -15.7,-6 -29.2,-14.2 -40.2,-24.4 -11.1,-10.4 -19.6,-22.5 -25.2,-35.8 -5.5,-13.3 -8.4,-27.4 -8.4,-42.1 0,-28.5 9.3,-51.7 27.6,-69 16.9,-15.9 39.2,-28.4 66.4,-36.9 l 53.8,-17.1 c 21.2,-6.6 36.3,-15.7 44.9,-26.8 8.6,-11.2 12.8,-24 12.8,-39.1 0,-7.5 -1.4,-15.1 -4.2,-22.6 -2.8,-7.2 -7.1,-13.8 -12.8,-19.5 -5.8,-5.7 -13.4,-10.6 -22.8,-14.4 -9.5,-3.7 -21,-5.6 -34.2,-5.6 -8.6,0 -17.2,1.3 -25.8,4 -8.4,2.6 -16.1,6.5 -23,11.7 -7.1,5.3 -13.4,12 -18.9,19.8 -5.3,7.5 -9.1,16.4 -11.4,26.3 l -3.4,14.4 -58.4,-15.1 3.7,-14 c 4.2,-16 10.8,-30.7 19.6,-43.8 8.9,-13.1 19.5,-24.3 31.6,-33 12,-8.8 25.6,-15.7 40.3,-20.5 14.7,-4.8 30,-7.2 45.7,-7.2 22,0 41.7,3.4 58.4,10.1 16.7,6.7 30.9,15.8 42.1,27 11.1,11.2 19.7,24.1 25.4,38.5 5.7,14.3 8.6,28.9 8.6,43.4 0,28.5 -8.8,53.6 -26.1,74.6 -16.9,20.6 -41.3,36 -72.6,45.8" style="fill:#16181d;fill-opacity:1;fill-rule:nonzero;stroke:none" id="path128" transform="matrix(0.133333, 0, 0, -0.133333, 0, 2666.666748)"/>
  <path d="m 10758.8,9555.3 h 118 v -351.9 h 60 v 351.9 h 118 v 57.4 h -296 v -57.4" style="fill:#16181d;fill-opacity:1;fill-rule:nonzero;stroke:none" id="path130" transform="matrix(0.133333, 0, 0, -0.133333, 0, 2666.666748)"/>
  <path d="m 11590.6,9370.5 43.4,146.6 43.3,-146.6 z m 73.7,243.4 h -61.4 l -124.2,-410.3 h 63.5 l 32.5,111.2 h 119.2 l 32.5,-111.2 h 62.9 l -125,410.3" style="fill:#16181d;fill-opacity:1;fill-rule:nonzero;stroke:none" id="path132" transform="matrix(0.133333, 0, 0, -0.133333, 0, 2666.666748)"/>
  <path d="m 12273.3,9427.5 v 127.9 h 66.4 c 24.6,0 43.4,-5.8 54.9,-17.4 11.6,-11.5 17.4,-26.7 17.4,-46.2 0,-20.2 -5.8,-35.4 -16.7,-46.9 -11.5,-11.6 -28.9,-17.4 -52.7,-17.4 z m 110.5,-51.3 c 8.7,2.2 17.3,5.1 24.5,9.4 13.8,6.5 25.3,15.2 34.7,26 9.4,10.9 16.6,23.2 21.7,36.9 5,13.7 7.2,28.2 7.2,43.3 0,17.4 -2.9,34 -8.7,48.4 -5.7,15.2 -15.1,28.2 -26.7,39 -11.5,10.9 -26,18.8 -41.9,24.6 -15.9,5.8 -34.7,8.7 -54.9,8.7 H 12214 v -408.9 h 59.3 v 166.1 h 46.2 l 97.5,-166.1 h 68.6 l -101.8,172.6" style="fill:#16181d;fill-opacity:1;fill-rule:nonzero;stroke:none" id="path134" transform="matrix(0.133333, 0, 0, -0.133333, 0, 2666.666748)"/>
</svg>